SplineFontDB: 3.0
FontName: Artaxerxes
FullName: Artaxerxes
FamilyName: Artaxerxes
Weight: Book
Copyright: Xerxes Copyright (C) 2000, 2001, 2006 Ali Reza Mohazzab, Artaxerxes 2014 Persian Wikipedia Community
Version: 1.400 January 2014
ItalicAngle: 0
UnderlinePosition: -96
UnderlineWidth: 208
Ascent: 1792
Descent: 256
sfntRevision: 0x00014d0e
LayerCount: 2
Layer: 0 1 "Back"  1
Layer: 1 1 "Fore"  0
XUID: [1021 788 1030691390 10415410]
FSType: 0
OS2Version: 3
OS2_WeightWidthSlopeOnly: 0
OS2_UseTypoMetrics: 1
CreationTime: 1162467282
ModificationTime: 1162471340
PfmFamily: 81
TTFWeight: 400
TTFWidth: 5
LineGap: 0
VLineGap: 0
Panose: 1 1 1 1 1 1 1 1 1 1
OS2TypoAscent: 1792
OS2TypoAOffset: 0
OS2TypoDescent: -256
OS2TypoDOffset: 0
OS2TypoLinegap: 0
OS2WinAscent: 1398
OS2WinAOffset: 0
OS2WinDescent: 34
OS2WinDOffset: 0
HheadAscent: 1398
HheadAOffset: 0
HheadDescent: -34
HheadDOffset: 0
OS2SubXSize: 1638
OS2SubYSize: 1638
OS2SubXOff: 0
OS2SubYOff: 580
OS2SupXSize: 1638
OS2SupYSize: 1638
OS2SupXOff: 0
OS2SupYOff: 2000
OS2StrikeYSize: 208
OS2StrikeYPos: 1086
OS2Vendor: '    '
OS2CodePages: 00000000.00000000
OS2UnicodeRanges: 00000001.02000000.00000000.00000000
DEI: 91125
ShortTable: maxp 16
  1
  0
  54
  44
  6
  0
  0
  2
  0
  1
  1
  0
  64
  0
  0
  0
EndShort

StartChar: u103A0
Encoding: 66464 66464 4
Width: 1906
GlyphClass: 2
Flags: W
LayerCount: 2
Fore
SplineSet
178 932 m 1,0,-1
 1558 932 l 1,1,-1
 1430 762 l 1,2,-1
 1314 -16 l 1,3,-1
 1186 762 l 1,4,-1
 1070 898 l 1,5,-1
 968 762 l 1,6,-1
 858 -16 l 1,7,-1
 734 762 l 1,8,-1
 624 894 l 1,9,-1
 512 762 l 1,10,-1
 382 -16 l 1,11,-1
 236 762 l 1,12,-1
 72 932 l 1,13,-1
 138 932 l 1,14,-1
 138 1398 l 1,15,-1
 328 1276 l 1,16,-1
 1550 1150 l 1,17,-1
 328 1040 l 1,18,-1
 178 932 l 1,0,-1
EndSplineSet
EndChar

StartChar: u103A1
Encoding: 66465 66465 5
Width: 1582
GlyphClass: 2
Flags: W
LayerCount: 2
Fore
SplineSet
98 930 m 1,0,-1
 98 1366 l 1,1,-1
 202 1232 l 1,2,-1
 682 1114 l 1,3,-1
 202 980 l 1,4,-1
 166 930 l 1,5,-1
 614 930 l 1,6,-1
 482 766 l 1,7,-1
 364 14 l 1,8,-1
 232 766 l 1,9,-1
 130 878 l 1,10,-1
 98 834 l 1,11,-1
 98 914 l 1,12,-1
 84 930 l 1,13,-1
 98 930 l 1,0,-1
718 930 m 1,14,-1
 718 1366 l 1,15,-1
 824 1234 l 1,16,-1
 1300 1116 l 1,17,-1
 824 984 l 1,18,-1
 786 930 l 1,19,-1
 1234 930 l 1,20,-1
 1102 766 l 1,21,-1
 984 14 l 1,22,-1
 852 766 l 1,23,-1
 750 878 l 1,24,-1
 718 836 l 1,25,-1
 718 912 l 1,26,-1
 702 930 l 1,27,-1
 718 930 l 1,14,-1
EndSplineSet
EndChar

StartChar: u103A2
Encoding: 66466 66466 6
Width: 1614
GlyphClass: 2
Flags: W
LayerCount: 2
Fore
SplineSet
614 1252 m 1,0,-1
 354 654 l 1,1,-1
 636 12 l 1,2,-1
 88 662 l 1,3,-1
 614 1252 l 1,0,-1
556 828 m 1,4,-1
 1268 828 l 1,5,-1
 1178 680 l 1,6,-1
 1096 6 l 1,7,-1
 1006 680 l 1,8,-1
 908 818 l 1,9,-1
 824 680 l 1,10,-1
 744 6 l 1,11,-1
 654 680 l 1,12,-1
 556 828 l 1,4,-1
628 848 m 1,13,-1
 628 1156 l 1,14,-1
 752 1080 l 1,15,-1
 1320 1010 l 1,16,-1
 752 934 l 1,17,-1
 628 848 l 1,13,-1
EndSplineSet
EndChar

StartChar: u103A3
Encoding: 66467 66467 7
Width: 1380
GlyphClass: 2
Flags: W
LayerCount: 2
Fore
SplineSet
578 774 m 1,0,-1
 578 1092 l 1,1,-1
 668 1012 l 1,2,-1
 1078 942 l 1,3,-1
 668 862 l 1,4,-1
 578 774 l 1,0,-1
88 1174 m 1,5,-1
 536 1174 l 1,6,-1
 424 976 l 1,7,-1
 326 84 l 1,8,-1
 212 976 l 1,9,-1
 88 1174 l 1,5,-1
580 386 m 1,10,-1
 580 700 l 1,11,-1
 670 622 l 1,12,-1
 1080 552 l 1,13,-1
 670 474 l 1,14,-1
 580 386 l 1,10,-1
EndSplineSet
EndChar

StartChar: u103A4
Encoding: 66468 66468 8
Width: 1346
GlyphClass: 2
Flags: W
LayerCount: 2
Fore
SplineSet
602 1120 m 1,0,-1
 1050 1120 l 1,1,-1
 938 926 l 1,2,-1
 840 30 l 1,3,-1
 728 926 l 1,4,-1
 602 1120 l 1,0,-1
608 1258 m 1,5,-1
 348 660 l 1,6,-1
 630 18 l 1,7,-1
 86 668 l 1,8,-1
 608 1258 l 1,5,-1
EndSplineSet
EndChar

StartChar: u103A5
Encoding: 66469 66469 9
Width: 2222
GlyphClass: 2
Flags: W
LayerCount: 2
Fore
SplineSet
1496 446 m 1,0,-1
 1496 854 l 1,1,-1
 1572 752 l 1,2,-1
 1930 662 l 1,3,-1
 1572 560 l 1,4,-1
 1496 446 l 1,0,-1
610 1196 m 1,5,-1
 1518 1196 l 1,6,-1
 1396 980 l 1,7,-1
 1288 -4 l 1,8,-1
 1168 980 l 1,9,-1
 1064 1144 l 1,10,-1
 972 980 l 1,11,-1
 866 -6 l 1,12,-1
 746 980 l 1,13,-1
 610 1196 l 1,5,-1
612 1242 m 1,14,-1
 352 644 l 1,15,-1
 634 2 l 1,16,-1
 88 652 l 1,17,-1
 612 1242 l 1,14,-1
EndSplineSet
EndChar

StartChar: u103A6
Encoding: 66470 66470 10
Width: 1728
GlyphClass: 2
Flags: W
LayerCount: 2
Fore
SplineSet
610 844 m 1,0,-1
 610 1176 l 1,1,-1
 684 1092 l 1,2,-1
 1016 1024 l 1,3,-1
 1016 1168 l 1,4,-1
 1090 1086 l 1,5,-1
 1428 1012 l 1,6,-1
 1090 928 l 1,7,-1
 1016 836 l 1,8,-1
 1016 1014 l 1,9,-1
 684 936 l 1,10,-1
 610 844 l 1,0,-1
610 494 m 1,11,-1
 610 826 l 1,12,-1
 760 744 l 1,13,-1
 1436 670 l 1,14,-1
 760 586 l 1,15,-1
 610 494 l 1,11,-1
610 156 m 1,16,-1
 610 488 l 1,17,-1
 760 406 l 1,18,-1
 1436 332 l 1,19,-1
 760 248 l 1,20,-1
 610 156 l 1,16,-1
604 1278 m 1,21,-1
 344 680 l 1,22,-1
 626 38 l 1,23,-1
 82 686 l 1,24,-1
 604 1278 l 1,21,-1
EndSplineSet
EndChar

StartChar: u103A7
Encoding: 66471 66471 11
Width: 2126
GlyphClass: 2
Flags: W
LayerCount: 2
Fore
SplineSet
962 1134 m 1,0,-1
 1824 1134 l 1,1,-1
 1712 938 l 1,2,-1
 1614 46 l 1,3,-1
 1502 938 l 1,4,-1
 1394 1108 l 1,5,-1
 1298 938 l 1,6,-1
 1198 46 l 1,7,-1
 1086 938 l 1,8,-1
 962 1134 l 1,0,-1
604 1256 m 1,9,-1
 344 658 l 1,10,-1
 626 16 l 1,11,-1
 82 666 l 1,12,-1
 604 1256 l 1,9,-1
954 1256 m 1,13,-1
 694 658 l 1,14,-1
 976 16 l 1,15,-1
 430 666 l 1,16,-1
 954 1256 l 1,13,-1
EndSplineSet
EndChar

StartChar: u103A8
Encoding: 66472 66472 12
Width: 1714
GlyphClass: 2
Flags: W
LayerCount: 2
Fore
SplineSet
1002 566 m 1,0,-1
 1002 852 l 1,1,-1
 1076 780 l 1,2,-1
 1414 716 l 1,3,-1
 1076 646 l 1,4,-1
 1002 566 l 1,0,-1
98 914 m 1,5,-1
 1038 914 l 1,6,-1
 898 750 l 1,7,-1
 770 -2 l 1,8,-1
 630 750 l 1,9,-1
 556 826 l 1,10,-1
 492 752 l 1,11,-1
 368 8 l 1,12,-1
 230 752 l 1,13,-1
 74 914 l 1,14,-1
 88 914 l 1,15,-1
 88 1286 l 1,16,-1
 254 1194 l 1,17,-1
 1004 1110 l 1,18,-1
 254 1018 l 1,19,-1
 98 914 l 1,5,-1
EndSplineSet
EndChar

StartChar: u103A9
Encoding: 66473 66473 13
Width: 1498
GlyphClass: 2
Flags: W
LayerCount: 2
Fore
SplineSet
1202 1258 m 1,0,-1
 942 660 l 1,1,-1
 1224 18 l 1,2,-1
 678 668 l 1,3,-1
 1202 1258 l 1,0,-1
80 444 m 1,4,-1
 80 854 l 1,5,-1
 158 752 l 1,6,-1
 514 662 l 1,7,-1
 158 560 l 1,8,-1
 80 444 l 1,4,-1
390 1224 m 1,9,-1
 800 1224 l 1,10,-1
 696 1008 l 1,11,-1
 606 18 l 1,12,-1
 504 1008 l 1,13,-1
 390 1224 l 1,9,-1
EndSplineSet
EndChar

StartChar: u103AA
Encoding: 66474 66474 14
Width: 1794
GlyphClass: 2
Flags: W
LayerCount: 2
Fore
SplineSet
1046 152 m 1,0,-1
 1046 824 l 1,1,-1
 1124 740 l 1,2,-1
 1480 664 l 1,3,-1
 1124 580 l 1,4,-1
 1048 488 l 1,5,-1
 1124 406 l 1,6,-1
 1480 332 l 1,7,-1
 1124 246 l 1,8,-1
 1046 152 l 1,0,-1
94 444 m 1,9,-1
 94 854 l 1,10,-1
 172 752 l 1,11,-1
 528 662 l 1,12,-1
 172 560 l 1,13,-1
 94 444 l 1,9,-1
1062 1252 m 1,14,-1
 802 654 l 1,15,-1
 1084 12 l 1,16,-1
 536 662 l 1,17,-1
 1062 1252 l 1,14,-1
1046 828 m 1,18,-1
 1046 1166 l 1,19,-1
 1124 1082 l 1,20,-1
 1480 1008 l 1,21,-1
 1124 922 l 1,22,-1
 1046 828 l 1,18,-1
EndSplineSet
EndChar

StartChar: u103AB
Encoding: 66475 66475 15
Width: 1936
GlyphClass: 2
Flags: W
LayerCount: 2
Fore
SplineSet
84 686 m 1,0,-1
 84 1002 l 1,1,-1
 174 924 l 1,2,-1
 584 854 l 1,3,-1
 174 774 l 1,4,-1
 84 686 l 1,0,-1
528 1084 m 1,5,-1
 976 1084 l 1,6,-1
 864 888 l 1,7,-1
 766 -6 l 1,8,-1
 654 888 l 1,9,-1
 528 1084 l 1,5,-1
1190 1084 m 1,10,-1
 1638 1084 l 1,11,-1
 1526 888 l 1,12,-1
 1426 -6 l 1,13,-1
 1314 888 l 1,14,-1
 1190 1084 l 1,10,-1
904 758 m 1,15,-1
 1264 758 l 1,16,-1
 1174 628 l 1,17,-1
 1094 30 l 1,18,-1
 1004 628 l 1,19,-1
 904 758 l 1,15,-1
74 316 m 1,20,-1
 74 632 l 1,21,-1
 164 552 l 1,22,-1
 574 484 l 1,23,-1
 164 404 l 1,24,-1
 74 316 l 1,20,-1
EndSplineSet
EndChar

StartChar: u103AC
Encoding: 66476 66476 16
Width: 1906
GlyphClass: 2
Flags: W
LayerCount: 2
Fore
SplineSet
84 1108 m 1,0,-1
 1264 1108 l 1,1,-1
 1150 912 l 1,2,-1
 1050 18 l 1,3,-1
 938 912 l 1,4,-1
 858 1040 l 1,5,-1
 784 912 l 1,6,-1
 684 18 l 1,7,-1
 574 912 l 1,8,-1
 492 1040 l 1,9,-1
 420 912 l 1,10,-1
 320 18 l 1,11,-1
 206 912 l 1,12,-1
 84 1108 l 1,0,-1
1280 568 m 1,13,-1
 1280 884 l 1,14,-1
 1338 804 l 1,15,-1
 1600 736 l 1,16,-1
 1338 656 l 1,17,-1
 1280 568 l 1,13,-1
EndSplineSet
EndChar

StartChar: u103AD
Encoding: 66477 66477 17
Width: 1504
GlyphClass: 2
Flags: W
LayerCount: 2
Fore
SplineSet
102 920 m 1,0,-1
 1144 920 l 1,1,-1
 1012 756 l 1,2,-1
 894 4 l 1,3,-1
 762 756 l 1,4,-1
 624 906 l 1,5,-1
 502 756 l 1,6,-1
 386 4 l 1,7,-1
 252 756 l 1,8,-1
 102 920 l 1,0,-1
86 920 m 1,9,-1
 86 1292 l 1,10,-1
 284 1200 l 1,11,-1
 1200 1116 l 1,12,-1
 284 1024 l 1,13,-1
 86 920 l 1,9,-1
EndSplineSet
EndChar

StartChar: u103AE
Encoding: 66478 66478 18
Width: 1902
GlyphClass: 2
Flags: W
LayerCount: 2
Fore
SplineSet
598 1168 m 1,0,-1
 1562 1168 l 1,1,-1
 1442 950 l 1,2,-1
 1334 -34 l 1,3,-1
 1212 950 l 1,4,-1
 1080 1164 l 1,5,-1
 960 952 l 1,6,-1
 854 -34 l 1,7,-1
 734 952 l 1,8,-1
 598 1168 l 1,0,-1
90 8 m 1,9,-1
 90 1136 l 1,10,-1
 200 1042 l 1,11,-1
 700 958 l 1,12,-1
 200 864 l 1,13,-1
 94 766 l 1,14,-1
 200 672 l 1,15,-1
 700 586 l 1,16,-1
 200 490 l 1,17,-1
 94 384 l 1,18,-1
 200 290 l 1,19,-1
 700 206 l 1,20,-1
 200 112 l 1,21,-1
 90 8 l 1,9,-1
EndSplineSet
EndChar

StartChar: u103AF
Encoding: 66479 66479 19
Width: 1724
GlyphClass: 2
Flags: W
LayerCount: 2
Fore
SplineSet
974 1210 m 1,0,-1
 1422 1210 l 1,1,-1
 1310 1014 l 1,2,-1
 1210 120 l 1,3,-1
 1100 1014 l 1,4,-1
 974 1210 l 1,0,-1
530 264 m 1,5,-1
 530 550 l 1,6,-1
 534 548 l 1,7,-1
 534 802 l 1,8,-1
 534 824 l 1,9,-1
 534 1088 l 1,10,-1
 630 1016 l 1,11,-1
 1068 952 l 1,12,-1
 630 880 l 1,13,-1
 548 814 l 1,14,-1
 628 752 l 1,15,-1
 1068 688 l 1,16,-1
 628 616 l 1,17,-1
 542 542 l 1,18,-1
 624 480 l 1,19,-1
 1062 416 l 1,20,-1
 624 344 l 1,21,-1
 530 264 l 1,5,-1
604 1278 m 1,22,-1
 344 680 l 1,23,-1
 626 38 l 1,24,-1
 82 686 l 1,25,-1
 604 1278 l 1,22,-1
EndSplineSet
EndChar

StartChar: u103B0
Encoding: 66480 66480 20
Width: 1614
GlyphClass: 2
Flags: W
LayerCount: 2
Fore
SplineSet
84 1098 m 1,0,-1
 532 1098 l 1,1,-1
 420 902 l 1,2,-1
 320 8 l 1,3,-1
 208 902 l 1,4,-1
 84 1098 l 1,0,-1
854 1016 m 1,5,-1
 654 552 l 1,6,-1
 870 56 l 1,7,-1
 446 558 l 1,8,-1
 854 1016 l 1,5,-1
874 1098 m 1,9,-1
 1324 1098 l 1,10,-1
 1210 902 l 1,11,-1
 1110 6 l 1,12,-1
 1000 902 l 1,13,-1
 874 1098 l 1,9,-1
EndSplineSet
EndChar

StartChar: u103B1
Encoding: 66481 66481 21
Width: 1298
GlyphClass: 2
Flags: W
LayerCount: 2
Fore
SplineSet
94 434 m 1,0,-1
 94 728 l 1,1,-1
 250 654 l 1,2,-1
 950 590 l 1,3,-1
 250 514 l 1,4,-1
 94 434 l 1,0,-1
80 858 m 1,5,-1
 80 1170 l 1,6,-1
 244 1092 l 1,7,-1
 986 1024 l 1,8,-1
 244 944 l 1,9,-1
 80 858 l 1,5,-1
126 440 m 1,10,-1
 506 440 l 1,11,-1
 412 362 l 1,12,-1
 328 4 l 1,13,-1
 234 362 l 1,14,-1
 126 440 l 1,10,-1
318 684 m 1,15,-1
 318 948 l 1,16,-1
 428 882 l 1,17,-1
 940 824 l 1,18,-1
 428 758 l 1,19,-1
 318 684 l 1,15,-1
528 440 m 1,20,-1
 904 440 l 1,21,-1
 812 364 l 1,22,-1
 728 20 l 1,23,-1
 632 364 l 1,24,-1
 528 440 l 1,20,-1
EndSplineSet
EndChar

StartChar: u103B2
Encoding: 66482 66482 22
Width: 1386
GlyphClass: 2
Flags: W
LayerCount: 2
Fore
SplineSet
106 290 m 1,0,-1
 106 676 l 1,1,-1
 110 672 l 1,2,-1
 110 1000 l 1,3,-1
 220 906 l 1,4,-1
 718 824 l 1,5,-1
 220 730 l 1,6,-1
 136 650 l 1,7,-1
 218 580 l 1,8,-1
 732 494 l 1,9,-1
 218 398 l 1,10,-1
 106 290 l 1,0,-1
632 1168 m 1,11,-1
 1116 1168 l 1,12,-1
 996 952 l 1,13,-1
 888 -34 l 1,14,-1
 768 952 l 1,15,-1
 632 1168 l 1,11,-1
EndSplineSet
EndChar

StartChar: u103B3
Encoding: 66483 66483 23
Width: 1536
GlyphClass: 2
Flags: W
LayerCount: 2
Fore
SplineSet
1226 1242 m 1,0,-1
 966 644 l 1,1,-1
 1250 2 l 1,2,-1
 702 652 l 1,3,-1
 1226 1242 l 1,0,-1
892 1240 m 1,4,-1
 632 642 l 1,5,-1
 914 0 l 1,6,-1
 368 648 l 1,7,-1
 892 1240 l 1,4,-1
88 1214 m 1,8,-1
 500 1214 l 1,9,-1
 398 998 l 1,10,-1
 306 8 l 1,11,-1
 202 998 l 1,12,-1
 88 1214 l 1,8,-1
EndSplineSet
EndChar

StartChar: u103B4
Encoding: 66484 66484 24
Width: 1398
GlyphClass: 2
Flags: W
LayerCount: 2
Fore
SplineSet
82 676 m 1,0,-1
 82 1084 l 1,1,-1
 184 980 l 1,2,-1
 660 890 l 1,3,-1
 184 788 l 1,4,-1
 82 676 l 1,0,-1
80 180 m 1,5,-1
 80 590 l 1,6,-1
 182 488 l 1,7,-1
 658 398 l 1,8,-1
 182 294 l 1,9,-1
 80 180 l 1,5,-1
1076 1248 m 1,10,-1
 816 650 l 1,11,-1
 1098 8 l 1,12,-1
 550 658 l 1,13,-1
 1076 1248 l 1,10,-1
EndSplineSet
EndChar

StartChar: u103B5
Encoding: 66485 66485 25
Width: 1818
GlyphClass: 2
Flags: W
LayerCount: 2
Fore
SplineSet
600 1226 m 1,0,-1
 340 628 l 1,1,-1
 622 -12 l 1,2,-1
 76 636 l 1,3,-1
 600 1226 l 1,0,-1
932 638 m 1,4,-1
 932 1048 l 1,5,-1
 1034 946 l 1,6,-1
 1510 854 l 1,7,-1
 1034 754 l 1,8,-1
 932 638 l 1,4,-1
936 174 m 1,9,-1
 936 584 l 1,10,-1
 1038 482 l 1,11,-1
 1514 390 l 1,12,-1
 1038 288 l 1,13,-1
 936 174 l 1,9,-1
944 1222 m 1,14,-1
 684 624 l 1,15,-1
 966 -14 l 1,16,-1
 420 632 l 1,17,-1
 944 1222 l 1,14,-1
EndSplineSet
EndChar

StartChar: u103B6
Encoding: 66486 66486 26
Width: 1934
GlyphClass: 2
Flags: W
LayerCount: 2
Fore
SplineSet
526 1090 m 1,0,-1
 974 1090 l 1,1,-1
 862 892 l 1,2,-1
 764 0 l 1,3,-1
 652 892 l 1,4,-1
 526 1090 l 1,0,-1
1188 1088 m 1,5,-1
 1634 1088 l 1,6,-1
 1524 892 l 1,7,-1
 1424 -2 l 1,8,-1
 1310 892 l 1,9,-1
 1188 1088 l 1,5,-1
900 764 m 1,10,-1
 1262 764 l 1,11,-1
 1172 632 l 1,12,-1
 1092 36 l 1,13,-1
 1000 632 l 1,14,-1
 900 764 l 1,10,-1
82 690 m 1,15,-1
 82 1008 l 1,16,-1
 170 928 l 1,17,-1
 582 858 l 1,18,-1
 170 778 l 1,19,-1
 82 690 l 1,15,-1
EndSplineSet
EndChar

StartChar: u103B7
Encoding: 66487 66487 27
Width: 1650
GlyphClass: 2
Flags: W
LayerCount: 2
Fore
SplineSet
884 224 m 1,0,-1
 884 620 l 1,1,-1
 884 630 l 1,2,-1
 884 1028 l 1,3,-1
 962 926 l 1,4,-1
 1318 836 l 1,5,-1
 962 734 l 1,6,-1
 888 626 l 1,7,-1
 962 528 l 1,8,-1
 1318 438 l 1,9,-1
 962 338 l 1,10,-1
 884 224 l 1,0,-1
82 1190 m 1,11,-1
 566 1190 l 1,12,-1
 444 974 l 1,13,-1
 338 -12 l 1,14,-1
 216 974 l 1,15,-1
 82 1190 l 1,11,-1
940 1234 m 1,16,-1
 680 636 l 1,17,-1
 962 -4 l 1,18,-1
 416 646 l 1,19,-1
 940 1234 l 1,16,-1
EndSplineSet
EndChar

StartChar: u103B8
Encoding: 66488 66488 28
Width: 1832
GlyphClass: 2
Flags: W
LayerCount: 2
Fore
SplineSet
300 474 m 1,0,-1
 300 788 l 1,1,-1
 370 710 l 1,2,-1
 700 638 l 1,3,-1
 370 562 l 1,4,-1
 300 474 l 1,0,-1
74 210 m 1,5,-1
 74 526 l 1,6,-1
 152 446 l 1,7,-1
 508 376 l 1,8,-1
 152 300 l 1,9,-1
 74 210 l 1,5,-1
84 744 m 1,10,-1
 84 1060 l 1,11,-1
 162 980 l 1,12,-1
 516 912 l 1,13,-1
 162 832 l 1,14,-1
 84 744 l 1,10,-1
1226 488 m 1,15,-1
 1226 804 l 1,16,-1
 1298 724 l 1,17,-1
 1628 656 l 1,18,-1
 1298 576 l 1,19,-1
 1226 488 l 1,15,-1
1258 1230 m 1,20,-1
 998 632 l 1,21,-1
 1280 -6 l 1,22,-1
 732 642 l 1,23,-1
 1258 1230 l 1,20,-1
EndSplineSet
EndChar

StartChar: u103B9
Encoding: 66489 66489 29
Width: 1720
GlyphClass: 2
Flags: W
LayerCount: 2
Fore
SplineSet
886 458 m 1,0,-1
 886 864 l 1,1,-1
 964 764 l 1,2,-1
 1320 674 l 1,3,-1
 964 572 l 1,4,-1
 886 458 l 1,0,-1
86 1206 m 1,5,-1
 570 1206 l 1,6,-1
 448 992 l 1,7,-1
 342 6 l 1,8,-1
 220 992 l 1,9,-1
 86 1206 l 1,5,-1
966 1278 m 1,10,-1
 706 680 l 1,11,-1
 988 38 l 1,12,-1
 442 686 l 1,13,-1
 966 1278 l 1,10,-1
EndSplineSet
EndChar

StartChar: u103BA
Encoding: 66490 66490 30
Width: 1934
GlyphClass: 2
Flags: W
LayerCount: 2
Fore
SplineSet
892 698 m 1,0,-1
 892 1014 l 1,1,-1
 980 936 l 1,2,-1
 1392 864 l 1,3,-1
 980 786 l 1,4,-1
 892 698 l 1,0,-1
898 88 m 1,5,-1
 898 406 l 1,6,-1
 988 326 l 1,7,-1
 1396 256 l 1,8,-1
 988 176 l 1,9,-1
 898 88 l 1,5,-1
1132 402 m 1,10,-1
 1132 718 l 1,11,-1
 1220 638 l 1,12,-1
 1632 570 l 1,13,-1
 1220 490 l 1,14,-1
 1132 402 l 1,10,-1
82 378 m 1,15,-1
 82 694 l 1,16,-1
 158 614 l 1,17,-1
 502 544 l 1,18,-1
 158 466 l 1,19,-1
 82 378 l 1,15,-1
424 1090 m 1,20,-1
 870 1090 l 1,21,-1
 760 892 l 1,22,-1
 660 0 l 1,23,-1
 546 892 l 1,24,-1
 424 1090 l 1,20,-1
EndSplineSet
EndChar

StartChar: u103BB
Encoding: 66491 66491 31
Width: 1242
GlyphClass: 2
Flags: W
LayerCount: 2
Fore
SplineSet
76 508 m 1,0,-1
 76 800 l 1,1,-1
 230 728 l 1,2,-1
 932 662 l 1,3,-1
 230 588 l 1,4,-1
 76 508 l 1,0,-1
108 462 m 1,5,-1
 486 462 l 1,6,-1
 392 386 l 1,7,-1
 308 28 l 1,8,-1
 212 386 l 1,9,-1
 108 462 l 1,5,-1
334 1102 m 1,10,-1
 610 1102 l 1,11,-1
 540 1032 l 1,12,-1
 480 716 l 1,13,-1
 410 1032 l 1,14,-1
 334 1102 l 1,10,-1
510 462 m 1,15,-1
 884 462 l 1,16,-1
 790 388 l 1,17,-1
 708 44 l 1,18,-1
 614 388 l 1,19,-1
 510 462 l 1,15,-1
EndSplineSet
EndChar

StartChar: u103BC
Encoding: 66492 66492 32
Width: 1464
GlyphClass: 2
Flags: W
LayerCount: 2
Fore
SplineSet
104 242 m 1,0,-1
 104 558 l 1,1,-1
 194 478 l 1,2,-1
 604 408 l 1,3,-1
 194 330 l 1,4,-1
 104 242 l 1,0,-1
340 504 m 1,5,-1
 340 820 l 1,6,-1
 430 742 l 1,7,-1
 840 672 l 1,8,-1
 430 592 l 1,9,-1
 340 504 l 1,5,-1
84 788 m 1,10,-1
 84 1104 l 1,11,-1
 174 1024 l 1,12,-1
 584 954 l 1,13,-1
 174 874 l 1,14,-1
 84 788 l 1,10,-1
712 1192 m 1,15,-1
 1162 1192 l 1,16,-1
 1048 996 l 1,17,-1
 948 100 l 1,18,-1
 838 996 l 1,19,-1
 712 1192 l 1,15,-1
EndSplineSet
EndChar

StartChar: u103BD
Encoding: 66493 66493 33
Width: 1830
GlyphClass: 2
Flags: W
LayerCount: 2
Fore
SplineSet
1218 1236 m 1,0,-1
 958 638 l 1,1,-1
 1242 -2 l 1,2,-1
 694 646 l 1,3,-1
 1218 1236 l 1,0,-1
86 482 m 1,4,-1
 86 788 l 1,5,-1
 188 710 l 1,6,-1
 664 644 l 1,7,-1
 188 566 l 1,8,-1
 86 482 l 1,4,-1
1510 1228 m 1,9,-1
 1250 632 l 1,10,-1
 1532 -8 l 1,11,-1
 984 638 l 1,12,-1
 1510 1228 l 1,9,-1
EndSplineSet
EndChar

StartChar: u103BE
Encoding: 66494 66494 34
Width: 1496
GlyphClass: 2
Flags: W
LayerCount: 2
Fore
SplineSet
354 252 m 1,0,-1
 354 568 l 1,1,-1
 444 490 l 1,2,-1
 854 420 l 1,3,-1
 444 340 l 1,4,-1
 354 252 l 1,0,-1
80 506 m 1,5,-1
 80 822 l 1,6,-1
 170 742 l 1,7,-1
 580 672 l 1,8,-1
 170 594 l 1,9,-1
 80 506 l 1,5,-1
354 778 m 1,10,-1
 354 1096 l 1,11,-1
 444 1016 l 1,12,-1
 854 944 l 1,13,-1
 444 866 l 1,14,-1
 354 778 l 1,10,-1
754 1182 m 1,15,-1
 1200 1182 l 1,16,-1
 1090 986 l 1,17,-1
 990 92 l 1,18,-1
 876 986 l 1,19,-1
 754 1182 l 1,15,-1
EndSplineSet
EndChar

StartChar: u103BF
Encoding: 66495 66495 35
Width: 1578
GlyphClass: 2
Flags: W
LayerCount: 2
Fore
SplineSet
556 88 m 1,0,-1
 556 406 l 1,1,-1
 646 326 l 1,2,-1
 1056 256 l 1,3,-1
 646 176 l 1,4,-1
 556 88 l 1,0,-1
790 402 m 1,5,-1
 790 718 l 1,6,-1
 880 638 l 1,7,-1
 1290 570 l 1,8,-1
 880 490 l 1,9,-1
 790 402 l 1,5,-1
550 698 m 1,10,-1
 550 1014 l 1,11,-1
 642 936 l 1,12,-1
 1050 864 l 1,13,-1
 642 786 l 1,14,-1
 550 698 l 1,10,-1
82 1090 m 1,15,-1
 530 1090 l 1,16,-1
 418 892 l 1,17,-1
 318 0 l 1,18,-1
 206 892 l 1,19,-1
 82 1090 l 1,15,-1
EndSplineSet
EndChar

StartChar: u103C0
Encoding: 66496 66496 36
Width: 2004
GlyphClass: 2
Flags: W
LayerCount: 2
Fore
SplineSet
86 1204 m 1,0,-1
 572 1204 l 1,1,-1
 450 990 l 1,2,-1
 342 2 l 1,3,-1
 222 990 l 1,4,-1
 86 1204 l 1,0,-1
490 454 m 1,5,-1
 490 862 l 1,6,-1
 568 760 l 1,7,-1
 924 670 l 1,8,-1
 568 568 l 1,9,-1
 490 454 l 1,5,-1
930 454 m 1,10,-1
 930 862 l 1,11,-1
 1008 760 l 1,12,-1
 1364 670 l 1,13,-1
 1008 568 l 1,14,-1
 930 454 l 1,10,-1
1206 1204 m 1,15,-1
 1692 1204 l 1,16,-1
 1570 990 l 1,17,-1
 1462 2 l 1,18,-1
 1342 990 l 1,19,-1
 1206 1204 l 1,15,-1
EndSplineSet
EndChar

StartChar: u103C1
Encoding: 66497 66497 37
Width: 1560
GlyphClass: 2
Flags: W
LayerCount: 2
Fore
SplineSet
84 1016 m 1,0,-1
 84 1350 l 1,1,-1
 294 1266 l 1,2,-1
 1262 1192 l 1,3,-1
 294 1110 l 1,4,-1
 84 1016 l 1,0,-1
564 1096 m 1,5,-1
 338 574 l 1,6,-1
 584 16 l 1,7,-1
 106 582 l 1,8,-1
 564 1096 l 1,5,-1
1126 1090 m 1,9,-1
 900 568 l 1,10,-1
 1144 10 l 1,11,-1
 670 576 l 1,12,-1
 1126 1090 l 1,9,-1
EndSplineSet
EndChar

StartChar: u103C2
Encoding: 66498 66498 38
Width: 1302
GlyphClass: 2
Flags: W
LayerCount: 2
Fore
SplineSet
82 788 m 1,0,-1
 78 1332 l 1,1,-1
 236 1258 l 1,2,-1
 952 1192 l 1,3,-1
 236 1116 l 1,4,-1
 130 1060 l 1,5,-1
 238 1010 l 1,6,-1
 956 944 l 1,7,-1
 238 870 l 1,8,-1
 82 788 l 1,0,-1
112 776 m 1,9,-1
 970 776 l 1,10,-1
 856 644 l 1,11,-1
 754 34 l 1,12,-1
 638 644 l 1,13,-1
 538 748 l 1,14,-1
 450 646 l 1,15,-1
 350 44 l 1,16,-1
 238 646 l 1,17,-1
 112 776 l 1,9,-1
EndSplineSet
EndChar

StartChar: u103C3
Encoding: 66499 66499 39
Width: 1824
GlyphClass: 2
Flags: W
LayerCount: 2
Fore
SplineSet
600 1278 m 1,0,-1
 340 680 l 1,1,-1
 622 38 l 1,2,-1
 76 686 l 1,3,-1
 600 1278 l 1,0,-1
528 272 m 1,4,-1
 528 620 l 1,5,-1
 528 680 l 1,6,-1
 528 1028 l 1,7,-1
 632 926 l 1,8,-1
 1108 836 l 1,9,-1
 632 734 l 1,10,-1
 558 652 l 1,11,-1
 632 578 l 1,12,-1
 1108 488 l 1,13,-1
 632 386 l 1,14,-1
 528 272 l 1,4,-1
1524 1244 m 1,15,-1
 1264 646 l 1,16,-1
 1544 4 l 1,17,-1
 1000 652 l 1,18,-1
 1524 1244 l 1,15,-1
EndSplineSet
EndChar

StartChar: u103C8
Encoding: 66504 66504 40
Width: 1902
GlyphClass: 2
Flags: W
LayerCount: 2
Fore
SplineSet
710 1324 m 1,0,-1
 1194 1324 l 1,1,-1
 1074 1108 l 1,2,-1
 966 120 l 1,3,-1
 846 1108 l 1,4,-1
 710 1324 l 1,0,-1
1586 1246 m 1,5,-1
 1326 648 l 1,6,-1
 1608 6 l 1,7,-1
 1060 656 l 1,8,-1
 1586 1246 l 1,5,-1
72 676 m 1,9,-1
 72 1008 l 1,10,-1
 146 926 l 1,11,-1
 460 856 l 1,12,-1
 460 1008 l 1,13,-1
 534 926 l 1,14,-1
 872 852 l 1,15,-1
 534 768 l 1,16,-1
 460 676 l 1,17,-1
 460 846 l 1,18,-1
 146 768 l 1,19,-1
 72 676 l 1,9,-1
72 256 m 1,20,-1
 72 588 l 1,21,-1
 146 506 l 1,22,-1
 468 434 l 1,23,-1
 468 588 l 1,24,-1
 544 506 l 1,25,-1
 882 430 l 1,26,-1
 544 348 l 1,27,-1
 468 256 l 1,28,-1
 468 426 l 1,29,-1
 146 348 l 1,30,-1
 72 256 l 1,20,-1
EndSplineSet
EndChar

StartChar: u103C9
Encoding: 66505 66505 41
Width: 1668
GlyphClass: 2
Flags: W
LayerCount: 2
Fore
SplineSet
496 30 m 1,0,-1
 496 340 l 1,1,-1
 496 362 l 1,2,-1
 496 484 l 1,3,-1
 160 402 l 1,4,-1
 86 310 l 1,5,-1
 86 642 l 1,6,-1
 160 560 l 1,7,-1
 496 486 l 1,8,-1
 496 650 l 1,9,-1
 496 672 l 1,10,-1
 496 844 l 1,11,-1
 160 762 l 1,12,-1
 86 670 l 1,13,-1
 86 1002 l 1,14,-1
 160 920 l 1,15,-1
 496 846 l 1,16,-1
 496 970 l 1,17,-1
 496 980 l 1,18,-1
 496 1302 l 1,19,-1
 570 1218 l 1,20,-1
 910 1144 l 1,21,-1
 570 1062 l 1,22,-1
 500 976 l 1,23,-1
 570 900 l 1,24,-1
 910 826 l 1,25,-1
 570 742 l 1,26,-1
 506 662 l 1,27,-1
 570 590 l 1,28,-1
 910 514 l 1,29,-1
 570 432 l 1,30,-1
 506 352 l 1,31,-1
 570 278 l 1,32,-1
 910 204 l 1,33,-1
 570 122 l 1,34,-1
 496 30 l 1,0,-1
858 1300 m 1,35,-1
 1344 1300 l 1,36,-1
 1222 1070 l 1,37,-1
 1114 10 l 1,38,-1
 994 1070 l 1,39,-1
 858 1300 l 1,35,-1
EndSplineSet
EndChar

StartChar: u103CA
Encoding: 66506 66506 42
Width: 2076
GlyphClass: 2
Flags: W
LayerCount: 2
Fore
SplineSet
1730 1278 m 1,0,-1
 1470 680 l 1,1,-1
 1752 38 l 1,2,-1
 1206 686 l 1,3,-1
 1730 1278 l 1,0,-1
488 22 m 1,4,-1
 488 332 l 1,5,-1
 488 354 l 1,6,-1
 488 476 l 1,7,-1
 152 394 l 1,8,-1
 78 302 l 1,9,-1
 78 634 l 1,10,-1
 152 550 l 1,11,-1
 488 478 l 1,12,-1
 488 642 l 1,13,-1
 488 664 l 1,14,-1
 488 836 l 1,15,-1
 152 754 l 1,16,-1
 78 662 l 1,17,-1
 78 994 l 1,18,-1
 152 912 l 1,19,-1
 488 838 l 1,20,-1
 488 962 l 1,21,-1
 488 974 l 1,22,-1
 488 1294 l 1,23,-1
 562 1210 l 1,24,-1
 902 1136 l 1,25,-1
 562 1054 l 1,26,-1
 492 968 l 1,27,-1
 562 890 l 1,28,-1
 902 818 l 1,29,-1
 562 734 l 1,30,-1
 496 652 l 1,31,-1
 562 582 l 1,32,-1
 902 508 l 1,33,-1
 562 424 l 1,34,-1
 496 344 l 1,35,-1
 562 270 l 1,36,-1
 902 196 l 1,37,-1
 562 114 l 1,38,-1
 488 22 l 1,4,-1
852 1292 m 1,39,-1
 1336 1292 l 1,40,-1
 1214 1062 l 1,41,-1
 1108 2 l 1,42,-1
 986 1062 l 1,43,-1
 852 1292 l 1,39,-1
EndSplineSet
EndChar

StartChar: u103CB
Encoding: 66507 66507 43
Width: 2340
GlyphClass: 2
Flags: W
LayerCount: 2
Fore
SplineSet
1156 1208 m 1,0,-1
 1640 1208 l 1,1,-1
 1520 994 l 1,2,-1
 1412 6 l 1,3,-1
 1290 994 l 1,4,-1
 1156 1208 l 1,0,-1
2014 1254 m 1,5,-1
 1754 656 l 1,6,-1
 2036 14 l 1,7,-1
 1490 664 l 1,8,-1
 2014 1254 l 1,5,-1
174 672 m 1,9,-1
 174 1080 l 1,10,-1
 278 976 l 1,11,-1
 754 886 l 1,12,-1
 278 784 l 1,13,-1
 174 672 l 1,9,-1
172 176 m 1,14,-1
 172 584 l 1,15,-1
 276 482 l 1,16,-1
 750 392 l 1,17,-1
 276 290 l 1,18,-1
 172 176 l 1,14,-1
1168 1244 m 1,19,-1
 910 646 l 1,20,-1
 1190 4 l 1,21,-1
 644 652 l 1,22,-1
 1168 1244 l 1,19,-1
EndSplineSet
EndChar

StartChar: u103CC
Encoding: 66508 66508 44
Width: 1944
GlyphClass: 2
Flags: W
LayerCount: 2
Fore
SplineSet
1194 1218 m 1,0,-1
 1640 1218 l 1,1,-1
 1530 1000 l 1,2,-1
 1430 2 l 1,3,-1
 1316 1000 l 1,4,-1
 1194 1218 l 1,0,-1
628 606 m 1,5,-1
 342 296 l 1,6,-1
 628 8 l 1,7,-1
 112 304 l 1,8,-1
 628 606 l 1,5,-1
598 1248 m 1,9,-1
 314 936 l 1,10,-1
 598 648 l 1,11,-1
 84 942 l 1,12,-1
 598 1248 l 1,9,-1
1170 598 m 1,13,-1
 882 286 l 1,14,-1
 1170 -2 l 1,15,-1
 654 292 l 1,16,-1
 1170 598 l 1,13,-1
1180 1226 m 1,17,-1
 892 916 l 1,18,-1
 1180 628 l 1,19,-1
 664 924 l 1,20,-1
 1180 1226 l 1,17,-1
EndSplineSet
EndChar

StartChar: u103CD
Encoding: 66509 66509 45
Width: 2402
GlyphClass: 2
Flags: W
LayerCount: 2
Fore
SplineSet
1200 1216 m 1,0,-1
 1648 1216 l 1,1,-1
 1536 998 l 1,2,-1
 1436 0 l 1,3,-1
 1324 998 l 1,4,-1
 1200 1216 l 1,0,-1
1652 1216 m 1,5,-1
 2102 1216 l 1,6,-1
 1988 1000 l 1,7,-1
 1888 0 l 1,8,-1
 1778 1000 l 1,9,-1
 1652 1216 l 1,5,-1
636 604 m 1,10,-1
 350 294 l 1,11,-1
 636 6 l 1,12,-1
 120 302 l 1,13,-1
 636 604 l 1,10,-1
606 1246 m 1,14,-1
 320 934 l 1,15,-1
 606 646 l 1,16,-1
 90 940 l 1,17,-1
 606 1246 l 1,14,-1
1176 596 m 1,18,-1
 890 284 l 1,19,-1
 1176 -4 l 1,20,-1
 660 290 l 1,21,-1
 1176 596 l 1,18,-1
1186 1224 m 1,22,-1
 900 914 l 1,23,-1
 1186 626 l 1,24,-1
 670 922 l 1,25,-1
 1186 1224 l 1,22,-1
EndSplineSet
EndChar

StartChar: u103CE
Encoding: 66510 66510 46
Width: 2566
GlyphClass: 2
Flags: W
LayerCount: 2
Fore
SplineSet
1792 1240 m 1,0,-1
 1532 642 l 1,1,-1
 1812 0 l 1,2,-1
 1268 648 l 1,3,-1
 1792 1240 l 1,0,-1
648 484 m 1,4,-1
 648 642 l 1,5,-1
 190 570 l 1,6,-1
 86 484 l 1,7,-1
 86 790 l 1,8,-1
 190 714 l 1,9,-1
 648 648 l 1,10,-1
 648 790 l 1,11,-1
 752 714 l 1,12,-1
 1226 646 l 1,13,-1
 752 570 l 1,14,-1
 648 484 l 1,4,-1
2226 1232 m 1,15,-1
 1966 634 l 1,16,-1
 2248 -6 l 1,17,-1
 1702 642 l 1,18,-1
 2226 1232 l 1,15,-1
EndSplineSet
EndChar

StartChar: u103CF
Encoding: 66511 66511 47
Width: 2198
GlyphClass: 2
Flags: W
LayerCount: 2
Fore
SplineSet
82 994 m 1,0,-1
 82 1328 l 1,1,-1
 198 1244 l 1,2,-1
 672 1178 l 1,3,-1
 672 1328 l 1,4,-1
 788 1244 l 1,5,-1
 1252 1180 l 1,6,-1
 1252 1306 l 1,7,-1
 1368 1224 l 1,8,-1
 1910 1150 l 1,9,-1
 1368 1068 l 1,10,-1
 1252 974 l 1,11,-1
 1252 1158 l 1,12,-1
 788 1088 l 1,13,-1
 672 994 l 1,14,-1
 672 1160 l 1,15,-1
 198 1088 l 1,16,-1
 82 994 l 1,0,-1
560 1074 m 1,17,-1
 334 552 l 1,18,-1
 580 -6 l 1,19,-1
 104 560 l 1,20,-1
 560 1074 l 1,17,-1
1660 1084 m 1,21,-1
 1434 562 l 1,22,-1
 1680 4 l 1,23,-1
 1204 570 l 1,24,-1
 1660 1084 l 1,21,-1
1100 1074 m 1,25,-1
 874 552 l 1,26,-1
 1120 -6 l 1,27,-1
 644 560 l 1,28,-1
 1100 1074 l 1,25,-1
EndSplineSet
EndChar

StartChar: u103D0
Encoding: 66512 66512 48
Width: 1430
GlyphClass: 2
Flags: W
LayerCount: 2
Fore
SplineSet
168 882 m 1,0,-1
 492 1206 l 1,1,-1
 580 954 l 1,2,-1
 1282 110 l 1,3,-1
 426 802 l 1,4,-1
 168 882 l 1,0,-1
EndSplineSet
EndChar

StartChar: u103D1
Encoding: 66513 66513 49
Width: 658
GlyphClass: 2
Flags: W
LayerCount: 2
Fore
SplineSet
88 1294 m 1,0,-1
 516 1294 l 1,1,-1
 410 1062 l 1,2,-1
 316 -6 l 1,3,-1
 208 1062 l 1,4,-1
 88 1294 l 1,0,-1
EndSplineSet
EndChar

StartChar: u103D2
Encoding: 66514 66514 50
Width: 660
GlyphClass: 2
Flags: W
LayerCount: 2
Fore
SplineSet
154 660 m 1,0,-1
 372 660 l 1,1,-1
 272 1168 l 1,2,-1
 154 1284 l 1,3,-1
 580 1284 l 1,4,-1
 474 1168 l 1,5,-1
 384 660 l 1,6,-1
 580 660 l 1,7,-1
 474 538 l 1,8,-1
 378 -14 l 1,9,-1
 272 538 l 1,10,-1
 154 660 l 1,0,-1
EndSplineSet
EndChar

StartChar: u103D3
Encoding: 66515 66515 51
Width: 716
GlyphClass: 2
Flags: W
LayerCount: 2
Fore
SplineSet
598 1260 m 1,0,-1
 338 662 l 1,1,-1
 618 20 l 1,2,-1
 74 670 l 1,3,-1
 598 1260 l 1,0,-1
EndSplineSet
EndChar

StartChar: u103D4
Encoding: 66516 66516 52
Width: 680
GlyphClass: 2
Flags: W
LayerCount: 2
Fore
SplineSet
628 606 m 1,0,-1
 342 296 l 1,1,-1
 628 8 l 1,2,-1
 112 304 l 1,3,-1
 628 606 l 1,0,-1
598 1248 m 1,4,-1
 314 936 l 1,5,-1
 598 648 l 1,6,-1
 84 942 l 1,7,-1
 598 1248 l 1,4,-1
EndSplineSet
EndChar

StartChar: u103D5
Encoding: 66517 66517 53
Width: 1338
GlyphClass: 2
Flags: W
LayerCount: 2
Fore
SplineSet
74 1138 m 1,0,-1
 74 1332 l 1,1,-1
 198 1282 l 1,2,-1
 666 1248 l 1,3,-1
 1136 1288 l 1,4,-1
 1262 1342 l 1,5,-1
 1262 1148 l 1,6,-1
 1136 1198 l 1,7,-1
 666 1232 l 1,8,-1
 198 1192 l 1,9,-1
 74 1138 l 1,0,-1
500 1074 m 1,10,-1
 836 1074 l 1,11,-1
 752 890 l 1,12,-1
 678 52 l 1,13,-1
 594 890 l 1,14,-1
 500 1074 l 1,10,-1
EndSplineSet
EndChar
